<svg version="1.2" xmlns="http://www.w3.org/2000/svg" viewBox="0 0 320 512" width="320" height="512">
	<title>xmark-solid-svg</title>
	<style>
		.s0 { fill: #3e5dd1 } 
	</style>
	<path id="Layer" class="s0" d="m310.6 361.4c12.5 12.5 12.5 32.8 0 45.3c-6.2 6.2-14.4 9.3-22.6 9.3c-8.2 0-16.4-3.1-22.6-9.4l-105.4-105.3l-105.4 105.3c-6.2 6.3-14.4 9.4-22.6 9.4c-8.2 0-16.4-3.1-22.6-9.4c-12.5-12.5-12.5-32.7 0-45.2l105.4-105.4l-105.4-105.4c-12.5-12.5-12.5-32.7 0-45.2c12.5-12.5 32.7-12.5 45.2 0l105.4 105.4l105.4-105.4c12.5-12.5 32.7-12.5 45.2 0c12.5 12.5 12.5 32.8 0 45.3l-105.4 105.4z" />
</svg>